<svg width="63" height="63" viewBox="0 0 63 63" fill="none" xmlns="http://www.w3.org/2000/svg">
<g id="Mask group">
<mask id="mask0_227_1105" style="mask-type:luminance" maskUnits="userSpaceOnUse" x="0" y="0" width="63" height="63">
<g id="Group">
<path id="Vector" d="M31.722 62.0274C48.8188 62.0274 62.6784 48.1677 62.6784 31.071C62.6784 13.9742 48.8188 0.114563 31.722 0.114563C14.6253 0.114563 0.765625 13.9742 0.765625 31.071C0.765625 48.1677 14.6253 62.0274 31.722 62.0274Z" fill="white"/>
</g>
</mask>
<g mask="url(#mask0_227_1105)">
<g id="Group_2">
<path id="Vector_2" d="M0.765625 0.114563L1.73301 2.77488L0.765625 5.55612V8.33736L4.63517 14.8672L0.765625 21.3971V25.2666L4.63517 31.071L0.765625 36.8753V40.7448L4.63517 47.2747L0.765625 53.8046V62.0274L3.42594 61.06L6.20718 62.0274H8.98842L15.5183 58.1578L22.0481 62.0274H25.9177L31.722 58.1578L37.5263 62.0274H41.3959L47.9258 58.1578L54.4556 62.0274H62.6784L61.711 59.367L62.6784 56.5858V53.8046L58.8089 47.2747L62.6784 40.7448V36.8753L58.8089 31.071L62.6784 25.2666V21.3971L58.8089 14.8672L62.6784 8.33736V0.114563L60.0181 1.08195L57.2369 0.114563H54.4556L47.9258 3.98411L41.3959 0.114563H37.5263L31.722 3.98411L25.9177 0.114563H22.0481L15.5183 3.98411L8.98842 0.114563H0.765625Z" fill="#EEEEEE"/>
<path id="Vector_3" d="M41.3959 0.114563V13.1743L54.4556 0.114563H41.3959ZM62.6784 8.33736L49.6187 21.3971H62.6784V8.33736ZM0.765625 21.3971H13.8254L0.765625 8.33736V21.3971ZM8.98842 0.114563L22.0481 13.1743V0.114563H8.98842ZM22.0481 62.0274V48.9676L8.98842 62.0274H22.0481ZM0.765625 53.8046L13.8254 40.7448H0.765625V53.8046ZM62.6784 40.7448H49.6187L62.6784 53.8046V40.7448ZM54.4556 62.0274L41.3959 48.9676V62.0274H54.4556Z" fill="#0052B4"/>
<path id="Vector_4" d="M0.765625 0.114563V5.55612L16.6066 21.3971H22.0481L0.765625 0.114563ZM25.9177 0.114563V25.2666H0.765625V36.8753H25.9177V62.0274H37.5263V36.8753H62.6784V25.2666H37.5263V0.114563H25.9177ZM57.2369 0.114563L41.3959 15.9555V21.3971L62.6784 0.114563H57.2369ZM22.0481 40.7448L0.765625 62.0274H6.20718L22.0481 46.1864V40.7448ZM41.3959 40.7448L62.6784 62.0274V56.5858L46.8374 40.7448H41.3959Z" fill="#D80027"/>
</g>
</g>
</g>
</svg>
